<?xml version="1.0" encoding="UTF-8" standalone="no"?>
<!-- Created with Inkscape (http://www.inkscape.org/) -->

<svg
   width="256mm"
   height="256mm"
   viewBox="0 0 256 256"
   version="1.1"
   id="svg5"
   xmlns="http://www.w3.org/2000/svg"
   xmlns:svg="http://www.w3.org/2000/svg">
  <defs
     id="defs2" />
  <g
     id="layer1">
    <path
       id="rect2715"
       style="color:#000000;fill:#000000"
       d="m 27.836027,12.834875 c -8.223497,0 -15.000118,6.776621 -15.000118,15.000118 v 29.303121 h 9.999906 V 27.834993 c 0,-2.856481 2.143732,-5.000211 5.000212,-5.000211 h 29.302087 v -9.999907 z m 171.025733,0 v 9.999907 h 29.30209 c 2.85648,0 5.00021,2.14373 5.00021,5.000211 v 29.303121 h 9.99991 V 27.834993 c 0,-8.223497 -6.77663,-15.000118 -15.00012,-15.000118 z M 12.835909,198.86176 v 29.30312 c 0,8.2235 6.776621,15.00012 15.000118,15.00012 h 29.302087 v -9.9999 H 27.836027 c -2.85648,0 -5.000212,-2.14374 -5.000212,-5.00022 v -29.30312 z m 220.328151,0 v 29.30312 c 0,2.85648 -2.14373,5.00022 -5.00021,5.00022 h -29.30209 v 9.9999 h 29.30209 c 8.22349,0 15.00012,-6.77662 15.00012,-15.00012 v -29.30312 z" />
    <g
       id="g12607"
       style="display:inline;stroke-width:11.9212;stroke-dasharray:none"
       transform="matrix(0.60208253,0.58434821,-0.60208253,0.58434821,139.3432,-4.8898847)">
      <path
         id="path15811"
         style="display:inline;fill:#ffffff;fill-opacity:1;stroke:#000000;stroke-width:11.9212;stroke-dasharray:none;stroke-opacity:1"
         d="m 70.431877,160.31011 v 64.04829 c 0,5.53998 4.459918,9.9999 9.999906,9.9999 H 125.07299 L 185.568,173.86329 v -13.55318 z" />
      <path
         id="path11876"
         style="display:inline;fill:#64c428;fill-opacity:1;stroke:#000000;stroke-width:11.9212;stroke-dasharray:none;stroke-opacity:1"
         d="m 80.431783,21.641573 c -5.539994,0 -9.999906,4.459912 -9.999906,9.999906 V 160.31011 H 185.568 V 31.641479 c 0,-5.539994 -4.45991,-9.999906 -9.99991,-9.999906 z" />
    </g>
    <g
       id="g15079"
       style="display:inline"
       transform="translate(0,-1.5875)">
      <path
         id="path13215"
         style="color:#000000;fill:#b30000;fill-opacity:1"
         d="m 62.193103,40.336039 c -1.413271,0 -2.811862,0.160326 -4.189408,0.437183 -1.377547,0.276858 -2.734084,0.669723 -4.064352,1.134814 -2.660535,0.930183 -5.215013,2.149703 -7.617106,3.301091 -4.804186,2.302776 -8.632548,4.599719 -8.632548,4.599719 l 5.138188,8.577771 c 0,0 3.481034,-2.08181 7.816577,-4.159953 4.335544,-2.078142 9.889951,-3.890718 11.548649,-3.890718 1.658701,0 4.742561,1.479601 8.398454,3.67006 3.655891,2.19046 7.884075,5.091679 13.537158,5.091679 5.653084,0 9.881265,-2.901219 13.537158,-5.091679 1.827946,-1.095229 3.514427,-2.012481 4.949567,-2.656169 1.43515,-0.643686 2.61954,-1.013891 3.44889,-1.013891 1.65871,0 4.74256,1.479601 8.39845,3.67006 1.82795,1.09523 3.79904,2.368078 6.01979,3.367236 2.22076,0.999158 4.69083,1.724443 7.51737,1.724443 5.65308,0 9.88126,-2.901219 13.53716,-5.091679 3.62017,-2.169053 6.67471,-3.636333 8.34471,-3.664893 l 8.04757,-8.047571 c -2.34506,-1.113139 -4.95959,-1.957503 -7.99383,-1.957503 -1.41328,0 -2.73781,0.18211 -3.98632,0.488343 -1.24851,0.306231 -2.42067,0.73652 -3.53105,1.2361 -2.22076,0.999158 -4.19184,2.272007 -6.01979,3.367236 -3.65589,2.19046 -6.73975,3.67006 -8.39845,3.67006 -0.82935,0 -2.01426,-0.370205 -3.4494,-1.013891 -1.43514,-0.643687 -3.12111,-1.560939 -4.94905,-2.656169 -3.65589,-2.190459 -7.88408,-5.091679 -13.53716,-5.091679 -5.65309,0 -9.881269,2.90122 -13.537161,5.091679 -3.655894,2.19046 -6.739753,3.67006 -8.398454,3.67006 -1.6587,0 -4.742562,-1.4796 -8.398454,-3.67006 -1.827946,-1.095229 -3.798518,-2.368078 -6.019271,-3.367236 -1.110375,-0.49958 -2.282537,-0.929869 -3.53105,-1.2361 -1.248512,-0.306233 -2.573565,-0.488343 -3.986837,-0.488343 z" />
      <path
         id="path13215-9"
         style="color:#000000;fill:#b30000;fill-opacity:1"
         d="m 62.193103,94.160144 c -5.653083,0 -11.066681,2.568244 -15.870866,4.871021 -4.804186,2.302775 -8.632548,4.601785 -8.632548,4.601785 l 5.138188,8.57777 c 0,0 3.481034,-2.08388 7.816577,-4.16202 4.335544,-2.07815 9.889951,-3.88865 11.548649,-3.88865 1.6587,0 4.742561,1.4796 8.398454,3.67006 3.655891,2.19046 7.884074,5.09168 13.537158,5.09168 1.258499,0 2.443144,-0.14966 3.569808,-0.39739 L 106.06278,94.160144 c -5.6523,5.38e-4 -9.880058,2.901421 -13.535611,5.091679 -3.655894,2.190467 -6.739755,3.670047 -8.398454,3.670057 -1.658699,0 -4.742562,-1.47959 -8.398454,-3.670057 -3.655892,-2.19046 -7.884073,-5.091679 -13.537158,-5.091679 z" />
    </g>
    <path
       style="font-variation-settings:normal;opacity:1;fill:none;fill-opacity:1;stroke:#000000;stroke-width:10;stroke-linecap:butt;stroke-linejoin:miter;stroke-miterlimit:4;stroke-dasharray:none;stroke-dashoffset:0;stroke-opacity:1;stop-color:#000000;stop-opacity:1"
       d="M 39.13176,205.14315 H 185.68184"
       id="path24337" />
    <g
       aria-label="RIME"
       transform="rotate(-45)"
       id="text32379-6"
       style="font-size:29.3428px;font-family:'Zen Dots';-inkscape-font-specification:'Zen Dots';fill:none;stroke:#000000;stroke-width:14.8529;stop-color:#000000">
      <path
         d="m -18.256665,211.8074 v -20.9801 h 17.57633698 q 3.25705082,0 5.04696162,1.6432 1.8192536,1.6432 1.8192536,4.98827 0,2.84626 -1.320426,4.46011 -1.320426,1.61385 -3.7558784,2.02465 l 4.841562,7.86387 H 0.61075518 l -4.48944838,-7.71715 h -9.6831238 v 7.71715 z M -1.2378412,194.64187 H -13.561817 v 5.60447 l 12.3239758,0.0293 q 1.29108318,0 1.96596758,-0.64554 0.70422722,-0.64554 0.70422722,-2.17137 0,-1.55516 -0.70422722,-2.17136 -0.6748844,-0.64554 -1.96596758,-0.64554 z"
         style="fill:#000000;stroke:none"
         id="path33198" />
      <path
         d="m 9.7069978,211.8074 v -20.9801 h 4.6948482 v 20.9801 z"
         style="fill:#000000;stroke:none"
         id="path33200" />
      <path
         d="m 18.509814,211.8074 v -20.9801 h 3.931935 l 9.712467,6.80753 h 0.146714 l 9.712467,-6.80753 h 3.931935 v 20.9801 h -4.694848 v -15.11154 l -6.660815,4.46011 v 10.65143 h -4.694848 v -10.65143 l -6.690159,-4.46011 v 15.11154 z"
         style="fill:#000000;stroke:none"
         id="path33202" />
      <path
         d="m 50.053348,211.8074 v -20.9801 h 23.004755 v 3.81457 H 54.748196 v 4.63616 H 71.35622 v 3.81456 H 54.748196 v 4.90025 h 18.309907 v 3.81456 z"
         style="fill:#000000;stroke:none"
         id="path33204" />
    </g>
  </g>
</svg>
